<svg xmlns="http://www.w3.org/2000/svg" xmlns:xlink="http://www.w3.org/1999/xlink" width="500" zoomAndPan="magnify" viewBox="0 0 375 374.999991" height="500" preserveAspectRatio="xMidYMid meet" version="1.0"><defs><clipPath id="c69b2f122b"><path d="M 122 157 L 218 157 L 218 262.5 L 122 262.5 Z M 122 157 " clip-rule="nonzero"/></clipPath><clipPath id="6fef225b0f"><path d="M 164 112.5 L 253 112.5 L 253 201 L 164 201 Z M 164 112.5 " clip-rule="nonzero"/></clipPath><clipPath id="f60c812da9"><path d="M 173 183 L 210 183 L 210 215.625 L 173 215.625 Z M 173 183 " clip-rule="nonzero"/></clipPath><clipPath id="50f7ba5194"><path d="M 194 174.375 L 210.234375 174.375 L 210.234375 192 L 194 192 Z M 194 174.375 " clip-rule="nonzero"/></clipPath><clipPath id="2b102c9a10"><path d="M 164.484375 179 L 183 179 L 183 198 L 164.484375 198 Z M 164.484375 179 " clip-rule="nonzero"/></clipPath><clipPath id="51f58cec3d"><path d="M 164.484375 180 L 176 180 L 176 191 L 164.484375 191 Z M 164.484375 180 " clip-rule="nonzero"/></clipPath><clipPath id="6c86c70f66"><path d="M 201 175 L 210.234375 175 L 210.234375 186 L 201 186 Z M 201 175 " clip-rule="nonzero"/></clipPath></defs><path fill="#fee3d8" d="M 201.617188 240.347656 C 201.050781 240.644531 200.335938 240.734375 199.769531 240.40625 C 199.082031 240.019531 198.785156 239.210938 198.605469 238.433594 C 198.191406 236.496094 199.082031 230.046875 202.363281 232.375 C 204.835938 234.046875 204.0625 239.003906 201.617188 240.347656 Z M 218.460938 212.28125 C 216.464844 211.804688 215.210938 214.550781 214.792969 216.011719 C 214.554688 216.910156 214.378906 217.894531 214.765625 218.730469 C 215.332031 219.953125 216.96875 220.460938 218.222656 219.953125 C 219.476562 219.445312 220.308594 218.191406 220.546875 216.847656 C 220.816406 215.476562 220.128906 212.699219 218.460938 212.28125 Z M 218.402344 191.800781 C 214.882812 189.710938 214.347656 198.039062 216.253906 199.261719 C 219.296875 201.292969 221.742188 193.828125 218.402344 191.800781 Z M 181.914062 239.421875 C 181.972656 240.019531 182.089844 240.613281 182.417969 241.121094 C 182.449219 241.152344 182.449219 241.183594 182.480469 241.210938 C 183.074219 242.078125 184.238281 242.4375 185.3125 242.347656 C 195.535156 241.449219 180.511719 225.6875 181.914062 239.421875 Z M 248.628906 180.335938 C 248.660156 180.304688 248.660156 180.273438 248.691406 180.246094 C 249.019531 179.765625 249.167969 179.171875 249.257812 178.574219 C 251.285156 164.929688 235.542969 179.945312 245.738281 181.347656 C 246.8125 181.46875 247.972656 181.171875 248.628906 180.335938 Z M 230.355469 170.929688 C 228.449219 172.839844 227.910156 176.003906 229.460938 178.246094 C 229.878906 178.839844 230.445312 179.378906 231.132812 179.617188 C 231.816406 179.886719 232.621094 179.855469 233.246094 179.4375 C 233.992188 178.929688 234.320312 177.976562 234.46875 177.078125 C 234.648438 176.125 234.679688 175.140625 234.648438 174.152344 C 234.5 171.796875 232.832031 168.480469 230.355469 170.929688 Z M 230.773438 231.777344 C 228.238281 233.359375 228.777344 238.347656 231.160156 239.777344 C 231.699219 240.109375 232.414062 240.226562 233.007812 239.929688 C 233.726562 239.570312 234.050781 238.765625 234.261719 238.015625 C 234.738281 236.105469 234.171875 229.628906 230.773438 231.777344 Z M 216.703125 231.746094 C 215.003906 232.074219 214.226562 234.824219 214.40625 236.226562 C 214.585938 237.570312 215.359375 238.882812 216.582031 239.449219 C 217.804688 240.019531 219.476562 239.570312 220.101562 238.375 C 220.519531 237.539062 220.398438 236.554688 220.191406 235.660156 C 219.832031 234.195312 218.699219 231.390625 216.703125 231.746094 Z M 246.335938 192.664062 C 242.757812 192.964844 243.234375 198.21875 244.875 200.308594 C 245.320312 200.847656 245.949219 201.265625 246.664062 201.292969 C 247.496094 201.292969 248.273438 200.757812 248.691406 200.039062 C 249.882812 197.890625 249.792969 192.367188 246.335938 192.664062 Z M 232.203125 191.171875 C 229.820312 191.292969 229.433594 195.917969 229.757812 197.589844 C 229.96875 198.695312 230.714844 199.859375 231.816406 199.890625 C 232.414062 199.890625 232.980469 199.5625 233.367188 199.085938 C 233.726562 198.605469 233.933594 198.039062 234.082031 197.441406 C 234.441406 195.917969 234.859375 191.054688 232.203125 191.171875 Z M 247.734375 221.953125 C 248.839844 221.507812 249.496094 220.371094 249.703125 219.207031 C 249.914062 218.042969 249.703125 216.847656 249.496094 215.714844 C 249.167969 214.074219 248.957031 211.503906 246.8125 212.429688 C 245.320312 213.085938 244.007812 215.386719 243.621094 216.847656 C 243.265625 218.164062 243.382812 219.65625 244.160156 220.761719 C 244.933594 221.894531 246.484375 222.492188 247.734375 221.953125 Z M 232.382812 213.238281 C 229.847656 212.011719 229.671875 216.820312 229.847656 218.28125 C 229.910156 218.910156 230.058594 219.535156 230.355469 220.042969 C 230.683594 220.582031 231.21875 221 231.816406 221.058594 C 232.652344 221.148438 233.457031 220.519531 233.8125 219.746094 C 234.589844 218.101562 234.292969 214.160156 232.382812 213.238281 Z M 218.460938 178.273438 C 220.429688 177.109375 220.28125 168.78125 216.671875 170.691406 C 213.214844 172.542969 215.300781 180.125 218.460938 178.273438 Z M 247.378906 242.585938 C 248.421875 242.734375 249.613281 242.4375 250.238281 241.570312 C 250.269531 241.539062 250.269531 241.511719 250.300781 241.480469 C 250.628906 241.003906 250.777344 240.40625 250.867188 239.808594 C 252.921875 226.195312 237.183594 241.210938 247.378906 242.585938 Z M 180.242188 143.671875 C 183.550781 145.96875 184.417969 139.519531 184 137.609375 C 183.851562 136.832031 183.523438 135.996094 182.835938 135.640625 C 182.269531 135.339844 181.554688 135.398438 180.988281 135.699219 C 178.574219 136.984375 177.796875 141.9375 180.242188 143.671875 Z M 164.144531 163.703125 C 166.140625 164.183594 167.394531 161.433594 167.8125 159.972656 C 168.050781 159.078125 168.230469 158.089844 167.839844 157.253906 C 167.273438 156.03125 165.636719 155.523438 164.382812 156.03125 C 163.132812 156.539062 162.296875 157.792969 162.058594 159.136719 C 161.820312 160.539062 162.476562 163.316406 164.144531 163.703125 Z M 164.234375 184.1875 C 167.753906 186.277344 168.289062 177.945312 166.378906 176.722656 C 163.308594 174.722656 160.894531 182.183594 164.234375 184.1875 Z M 200.722656 136.566406 C 200.664062 135.96875 200.542969 135.371094 200.214844 134.863281 C 200.1875 134.832031 200.1875 134.804688 200.15625 134.773438 C 199.5625 133.90625 198.398438 133.550781 197.324219 133.636719 C 187.070312 134.5625 202.09375 150.296875 200.722656 136.566406 Z M 134.003906 195.679688 C 133.976562 195.710938 133.976562 195.742188 133.945312 195.769531 C 133.617188 196.246094 133.46875 196.84375 133.378906 197.441406 C 131.351562 211.085938 147.09375 196.070312 136.898438 194.664062 C 135.824219 194.515625 134.632812 194.84375 134.003906 195.679688 Z M 152.25 205.085938 C 154.15625 203.175781 154.695312 200.011719 153.144531 197.769531 C 152.726562 197.171875 152.160156 196.636719 151.476562 196.398438 C 150.789062 196.128906 149.984375 196.160156 149.359375 196.578125 C 148.613281 197.082031 148.285156 198.039062 148.136719 198.933594 C 147.957031 199.890625 147.925781 200.875 147.957031 201.859375 C 148.105469 204.21875 149.804688 207.535156 152.25 205.085938 Z M 151.863281 144.238281 C 154.394531 142.65625 153.859375 137.667969 151.476562 136.234375 C 150.9375 135.90625 150.222656 135.789062 149.625 136.085938 C 148.910156 136.445312 148.582031 137.25 148.375 137.996094 C 147.867188 139.910156 148.433594 146.359375 151.863281 144.238281 Z M 165.933594 144.238281 C 167.632812 143.910156 168.40625 141.164062 168.230469 139.757812 C 168.050781 138.414062 167.273438 137.101562 166.050781 136.535156 C 164.832031 135.96875 163.160156 136.414062 162.535156 137.609375 C 162.117188 138.445312 162.238281 139.429688 162.445312 140.328125 C 162.804688 141.820312 163.90625 144.625 165.933594 144.238281 Z M 136.300781 183.320312 C 139.878906 183.019531 139.402344 177.765625 137.761719 175.675781 C 137.316406 175.140625 136.6875 174.722656 135.972656 174.691406 C 135.136719 174.691406 134.363281 175.230469 133.945312 175.945312 C 132.722656 178.09375 132.8125 183.617188 136.300781 183.320312 Z M 150.429688 184.8125 C 152.816406 184.695312 153.203125 180.066406 152.875 178.394531 C 152.667969 177.289062 151.921875 176.125 150.820312 176.09375 C 150.222656 176.09375 149.65625 176.421875 149.269531 176.902344 C 148.910156 177.378906 148.703125 177.945312 148.554688 178.542969 C 148.164062 180.09375 147.777344 184.960938 150.429688 184.8125 Z M 134.898438 154.03125 C 133.796875 154.476562 133.140625 155.613281 132.933594 156.777344 C 132.722656 157.941406 132.933594 159.136719 133.140625 160.269531 C 133.46875 161.914062 133.675781 164.480469 135.824219 163.554688 C 137.316406 162.898438 138.625 160.597656 139.015625 159.136719 C 139.371094 157.824219 139.253906 156.328125 138.476562 155.226562 C 137.703125 154.121094 136.152344 153.523438 134.898438 154.03125 Z M 150.253906 162.777344 C 152.785156 164.003906 152.964844 159.195312 152.785156 157.734375 C 152.726562 157.105469 152.578125 156.480469 152.28125 155.972656 C 151.953125 155.433594 151.414062 155.015625 150.820312 154.957031 C 149.984375 154.867188 149.179688 155.492188 148.820312 156.269531 C 148.046875 157.910156 148.34375 161.851562 150.253906 162.777344 Z M 164.175781 197.742188 C 162.207031 198.90625 162.355469 207.234375 165.964844 205.324219 C 169.421875 203.472656 167.335938 195.890625 164.175781 197.742188 Z M 135.257812 133.429688 C 134.214844 133.28125 133.023438 133.578125 132.394531 134.445312 C 132.367188 134.472656 132.367188 134.503906 132.335938 134.535156 C 132.007812 135.011719 131.859375 135.609375 131.769531 136.207031 C 129.683594 149.820312 145.453125 134.804688 135.257812 133.429688 Z M 135.257812 133.429688 " fill-opacity="1" fill-rule="nonzero"/><g clip-path="url(#c69b2f122b)"><path fill="#b6b9ae" d="M 217.386719 200.996094 C 217.476562 205.203125 217.269531 209.472656 216.96875 213.683594 C 216.316406 223.148438 215.242188 232.734375 211.457031 241.449219 C 207.667969 250.140625 200.8125 257.933594 191.78125 260.738281 C 186.117188 262.5 180.035156 262.230469 174.160156 261.394531 C 168.4375 260.589844 162.476562 259.097656 158.242188 255.15625 C 151.863281 249.214844 151.117188 239.570312 148.464844 231.238281 C 145.632812 222.28125 140.117188 214.191406 132.84375 208.25 C 129.863281 205.800781 126.492188 203.621094 124.464844 200.339844 C 121.871094 196.128906 121.933594 190.785156 122.945312 185.949219 C 124.527344 178.421875 128.667969 170.988281 135.527344 167.527344 C 143.039062 163.703125 152.398438 165.167969 159.910156 161.34375 C 162.027344 160.269531 164.027344 159.078125 165.992188 157.910156 C 170.792969 155.015625 217.269531 195.5 217.386719 200.996094 Z M 217.386719 200.996094 " fill-opacity="1" fill-rule="nonzero"/></g><g clip-path="url(#6fef225b0f)"><path fill="#f1bfa8" d="M 178.277344 120.859375 C 188.054688 117.277344 198.101562 112.976562 208.652344 112.738281 C 219.625 112.5 230.566406 115.785156 239.894531 121.578125 C 243.769531 123.996094 247.496094 126.949219 249.761719 130.953125 C 252.417969 135.609375 252.832031 141.222656 252.238281 146.535156 C 251.582031 152.417969 249.824219 158.089844 248.003906 163.703125 C 245.46875 171.496094 242.816406 179.230469 240.042969 186.933594 C 238.433594 191.382812 236.527344 196.128906 232.503906 198.605469 C 229.699219 200.339844 226.273438 200.636719 222.960938 200.816406 C 214.945312 201.265625 206.476562 201.113281 199.5625 197.082031 C 187.964844 190.335938 184.265625 175.199219 174.429688 166.09375 C 170.910156 162.839844 166.441406 160.121094 164.949219 155.582031 C 163.996094 152.71875 164.441406 149.582031 164.859375 146.597656 C 166.230469 137.160156 168.109375 124.5625 178.277344 120.859375 Z M 178.277344 120.859375 " fill-opacity="1" fill-rule="nonzero"/></g><path fill="#859588" d="M 199.5625 197.082031 C 187.964844 190.335938 184.265625 175.199219 174.429688 166.09375 C 171.539062 163.433594 168.050781 161.136719 166.023438 157.882812 C 170.824219 155.015625 175.441406 152.210938 181.316406 151.046875 C 190.824219 149.132812 197.5625 155.316406 202.808594 162.421875 C 207.90625 169.316406 212.617188 176.660156 215.09375 184.871094 C 216.671875 190.097656 217.269531 195.53125 217.386719 201.023438 C 211.15625 200.996094 204.898438 200.1875 199.5625 197.082031 Z M 199.5625 197.082031 " fill-opacity="1" fill-rule="nonzero"/><path fill="#cb836d" d="M 234.648438 241.0625 C 234.230469 226.375 233.875 208.339844 233.484375 190.902344 C 233.128906 173.46875 232.742188 155.433594 232.324219 140.746094 L 232.324219 140.355469 L 231.9375 140.296875 C 229.074219 139.910156 226.0625 139.609375 222.785156 139.402344 C 222.636719 136.953125 222.367188 134.742188 222.007812 132.921875 C 221.53125 130.414062 220.25 130.234375 219.714844 130.292969 C 218.492188 130.382812 217.269531 131.757812 217.210938 133.132812 C 217.121094 134.921875 217.210938 137.042969 217.359375 139.191406 C 212.617188 139.074219 207.820312 139.160156 203.316406 139.25 C 203.109375 137.488281 202.871094 135.878906 202.570312 134.5625 C 202.332031 133.488281 201.675781 132.890625 200.84375 132.953125 C 199.828125 133.011719 198.964844 134.027344 198.816406 135.25 C 198.695312 136.445312 198.605469 137.878906 198.578125 139.371094 C 194.433594 139.460938 189.992188 139.550781 184.328125 139.609375 C 183.761719 135.847656 182.925781 134.714844 182.152344 134.207031 C 181.554688 133.847656 180.839844 133.847656 180.035156 134.234375 C 179.257812 134.625 179.199219 135.699219 179.140625 136.953125 C 179.140625 137.101562 179.109375 137.28125 179.109375 137.429688 C 179.050781 138.117188 179.050781 138.863281 179.050781 139.667969 L 176.097656 139.699219 C 172.285156 139.730469 168.378906 139.789062 164.503906 139.847656 C 164.441406 138.804688 164.414062 137.789062 164.351562 136.863281 C 164.234375 135.160156 163.847656 134.054688 163.160156 133.488281 C 162.742188 133.132812 162.207031 133.011719 161.550781 133.101562 C 160 133.308594 159.34375 134.625 159.253906 137.578125 C 159.226562 138.324219 159.226562 139.101562 159.226562 139.910156 C 156.75 139.9375 154.457031 139.996094 152.21875 140.058594 L 151.773438 140.058594 L 151.773438 140.503906 C 151.773438 154.808594 151.445312 173.226562 151.117188 191.054688 C 150.789062 208.878906 150.492188 227.328125 150.460938 241.628906 L 150.460938 242.078125 L 150.910156 242.078125 C 164.53125 241.957031 178.753906 241.867188 192.523438 241.78125 C 206.296875 241.691406 220.546875 241.601562 234.140625 241.480469 L 234.589844 241.480469 Z M 222.992188 144.328125 C 223.46875 144.773438 223.917969 145.523438 224.066406 146.65625 C 224.183594 147.699219 223.796875 148.746094 223.082031 149.34375 C 223.050781 149.371094 223.023438 149.402344 222.960938 149.433594 C 222.992188 147.671875 223.023438 145.96875 222.992188 144.328125 Z M 218.132812 133.191406 C 218.164062 132.296875 219.058594 131.25 219.804688 131.191406 C 220.636719 131.128906 220.996094 132.355469 221.144531 133.101562 C 221.917969 137.222656 222.246094 143.191406 222.039062 149.910156 C 221.589844 150.058594 221.175781 150.148438 220.816406 150.210938 C 220.398438 150.269531 219.921875 150.296875 219.445312 150.269531 C 219.386719 149.703125 219.296875 148.953125 219.175781 148.089844 C 218.730469 144.179688 217.953125 137.640625 218.132812 133.191406 Z M 218.3125 148.207031 C 218.402344 148.925781 218.492188 149.582031 218.550781 150.121094 C 218.191406 150 217.894531 149.851562 217.625 149.582031 C 216.882812 148.835938 216.792969 147.613281 217 146.714844 C 217.148438 145.96875 217.476562 145.34375 217.925781 144.804688 C 218.074219 146.058594 218.191406 147.222656 218.3125 148.207031 Z M 203.824219 146.65625 C 204.179688 147.253906 204.421875 147.910156 204.539062 148.417969 C 204.71875 149.222656 204.539062 150.179688 204.0625 150.925781 C 203.941406 151.105469 203.855469 151.253906 203.703125 151.375 C 203.824219 149.96875 203.855469 148.359375 203.824219 146.65625 Z M 199.738281 135.339844 C 199.828125 134.472656 200.425781 133.847656 200.933594 133.816406 C 201.4375 133.789062 201.648438 134.386719 201.738281 134.742188 C 202.75 139.101562 203.226562 147.132812 202.808594 152.089844 C 202.660156 152.148438 202.480469 152.210938 202.332031 152.238281 C 202.003906 152.300781 201.648438 152.328125 201.230469 152.300781 C 200.871094 152.269531 200.304688 152.179688 199.769531 151.910156 C 199.648438 150.296875 199.171875 140.683594 199.738281 135.339844 Z M 198.785156 151.132812 C 198.21875 150.359375 198.101562 149.195312 198.398438 147.640625 C 198.457031 147.34375 198.546875 147.042969 198.636719 146.804688 C 198.667969 148.625 198.757812 150.179688 198.785156 151.132812 Z M 185.160156 151.882812 C 185.132812 149.402344 185.042969 147.253906 184.953125 145.433594 C 185.9375 146.359375 186.5625 147.523438 186.683594 148.65625 C 186.773438 149.730469 186.414062 150.6875 185.609375 151.492188 C 185.460938 151.640625 185.3125 151.761719 185.160156 151.882812 Z M 180.003906 137.488281 C 180.003906 137.3125 180.035156 137.160156 180.035156 136.984375 C 180.09375 136.207031 180.152344 135.160156 180.453125 135.011719 C 181.136719 134.683594 181.496094 134.804688 181.703125 134.921875 C 183.285156 135.878906 184.117188 141.550781 184.265625 152.269531 C 183.34375 152.566406 182.242188 152.539062 181.316406 152.089844 C 181.046875 150.6875 179.648438 142.238281 180.003906 137.488281 Z M 180.273438 151.433594 C 179.347656 150.566406 178.753906 149.285156 178.664062 147.96875 C 178.601562 147.195312 178.722656 146.417969 179.019531 145.789062 C 179.140625 145.523438 179.257812 145.28125 179.410156 145.074219 C 179.707031 147.671875 180.0625 150.089844 180.273438 151.433594 Z M 164.800781 152.476562 C 164.800781 151.34375 164.769531 149.222656 164.710938 146.746094 C 165.726562 148.359375 166.171875 150.628906 165.246094 151.96875 C 165.097656 152.148438 164.949219 152.328125 164.800781 152.476562 Z M 160.148438 137.640625 C 160.238281 134.207031 161.164062 134.085938 161.671875 133.996094 C 162.058594 133.9375 162.355469 133.996094 162.566406 134.175781 C 162.894531 134.445312 163.308594 135.132812 163.429688 136.921875 C 163.785156 142.507812 163.875 151.375 163.90625 153.074219 C 163.25 153.375 162.503906 153.464844 161.820312 153.253906 C 161.550781 153.164062 161.28125 153.046875 161.015625 152.894531 C 160.867188 151.492188 160 143.519531 160.148438 137.640625 Z M 159.496094 145.820312 C 159.671875 148.449219 159.910156 150.777344 160.03125 152.089844 C 159.136719 151.105469 158.570312 149.703125 158.570312 148.328125 C 158.570312 147.3125 158.898438 146.445312 159.496094 145.820312 Z M 152.070312 191.082031 C 152.371094 173.4375 152.695312 155.195312 152.726562 140.953125 C 154.8125 140.894531 156.960938 140.863281 159.285156 140.804688 C 159.316406 142.089844 159.375 143.402344 159.433594 144.683594 C 158.332031 145.492188 157.707031 146.777344 157.707031 148.296875 C 157.707031 150.359375 158.777344 152.449219 160.386719 153.523438 C 160.804688 153.792969 161.195312 153.972656 161.582031 154.089844 C 161.910156 154.179688 162.265625 154.238281 162.625 154.238281 C 163.90625 154.238281 165.21875 153.582031 165.992188 152.449219 C 167.363281 150.449219 166.441406 147.074219 164.679688 145.222656 C 164.652344 143.730469 164.59375 142.207031 164.53125 140.714844 C 168.40625 140.65625 172.3125 140.625 176.097656 140.566406 L 179.082031 140.535156 C 179.109375 141.609375 179.199219 142.714844 179.289062 143.820312 C 178.84375 144.207031 178.484375 144.746094 178.1875 145.371094 C 177.859375 146.148438 177.710938 147.042969 177.769531 147.96875 C 177.886719 149.789062 178.78125 151.464844 180.152344 152.449219 C 180.332031 152.566406 180.480469 152.6875 180.660156 152.777344 C 181.375 153.164062 182.179688 153.34375 182.984375 153.34375 C 184.207031 153.34375 185.398438 152.894531 186.207031 152.089844 C 187.1875 151.074219 187.636719 149.851562 187.515625 148.535156 C 187.367188 146.925781 186.355469 145.28125 184.832031 144.148438 C 184.746094 142.714844 184.625 141.492188 184.476562 140.445312 C 190.082031 140.386719 194.464844 140.296875 198.578125 140.207031 C 198.546875 141.820312 198.546875 143.492188 198.578125 145.042969 C 198.070312 145.609375 197.742188 146.359375 197.503906 147.433594 C 197.117188 149.3125 197.324219 150.777344 198.160156 151.761719 C 198.816406 152.539062 199.859375 153.046875 201.109375 153.136719 C 201.289062 153.136719 201.4375 153.164062 201.589844 153.164062 C 201.914062 153.164062 202.214844 153.136719 202.480469 153.074219 C 203.4375 152.867188 204.269531 152.269531 204.835938 151.375 C 205.464844 150.386719 205.671875 149.222656 205.433594 148.179688 C 205.164062 147.015625 204.570312 145.878906 203.792969 145.132812 C 203.734375 143.429688 203.613281 141.730469 203.464844 140.085938 C 207.996094 139.996094 212.765625 139.910156 217.507812 140.027344 C 217.597656 141.253906 217.714844 142.476562 217.835938 143.640625 C 216.96875 144.355469 216.375 145.3125 216.136719 146.476562 C 215.835938 147.941406 216.164062 149.34375 217.03125 150.179688 C 217.6875 150.835938 218.640625 151.132812 219.804688 151.132812 C 220.160156 151.132812 220.578125 151.105469 220.996094 151.046875 C 221.742188 150.925781 222.84375 150.714844 223.679688 150 C 224.632812 149.195312 225.140625 147.851562 224.988281 146.507812 C 224.8125 144.984375 224.09375 143.820312 223.023438 143.132812 C 222.992188 142.148438 222.960938 141.191406 222.902344 140.265625 C 225.972656 140.445312 228.804688 140.746094 231.546875 141.101562 C 231.964844 155.734375 232.324219 173.585938 232.679688 190.875 C 232.980469 205.144531 233.277344 219.773438 233.605469 232.703125 C 224.066406 232.285156 157.765625 232.523438 151.503906 232.523438 C 151.535156 219.984375 151.804688 205.355469 152.070312 191.082031 Z M 192.585938 240.914062 C 178.960938 241.003906 164.890625 241.09375 151.414062 241.210938 C 151.414062 239.777344 151.414062 238.316406 151.414062 236.824219 C 155.023438 236.761719 180.09375 236.496094 187.425781 236.761719 L 187.457031 235.867188 C 180.125 235.570312 155.082031 235.867188 151.414062 235.925781 C 151.414062 235.121094 151.414062 234.316406 151.445312 233.507812 C 157.644531 233.480469 224.335938 233.269531 233.574219 233.6875 C 233.636719 236.078125 233.695312 238.40625 233.753906 240.675781 C 220.28125 240.734375 206.207031 240.824219 192.585938 240.914062 Z M 218.820312 238.585938 L 218.757812 239.480469 C 214.226562 239.242188 182.746094 239.210938 167.601562 239.210938 C 161.519531 239.210938 158.808594 239.210938 158.660156 239.210938 L 158.71875 238.316406 C 158.929688 238.316406 162.566406 238.316406 167.601562 238.316406 C 182.746094 238.316406 214.289062 238.316406 218.820312 238.585938 Z M 218.820312 238.585938 " fill-opacity="1" fill-rule="nonzero"/><g clip-path="url(#f60c812da9)"><path fill="#bf6934" d="M 192.25 183.460938 C 192.066406 183.460938 191.855469 183.492188 191.671875 183.554688 C 191.609375 183.554688 191.546875 183.585938 191.488281 183.585938 C 191.089844 183.648438 190.660156 183.988281 190.386719 184.203125 C 189.988281 184.542969 189.621094 185.003906 189.375 185.5 C 189.285156 185.683594 189.191406 185.871094 189.132812 186.085938 C 188.886719 185.59375 188.582031 185.191406 188.214844 184.789062 C 187.664062 184.203125 186.960938 183.894531 186.226562 183.894531 C 186.042969 183.894531 185.859375 183.925781 185.707031 183.957031 C 185.003906 184.109375 184.300781 184.636719 183.902344 185.285156 C 183.628906 185.714844 183.472656 186.210938 183.382812 186.828125 C 183.351562 187.074219 183.320312 187.292969 183.289062 187.507812 L 183.199219 187.507812 C 183.078125 187.507812 182.953125 187.476562 182.832031 187.476562 C 182.496094 187.476562 182.191406 187.507812 181.945312 187.601562 C 181.546875 187.722656 181.179688 187.878906 180.84375 188.0625 C 180.507812 188.25 180.234375 188.496094 179.957031 188.773438 L 179.894531 188.835938 C 179.46875 189.238281 179.132812 189.792969 178.886719 190.441406 C 178.273438 191.710938 178.152344 193.222656 178.519531 194.796875 C 178.03125 195.261719 177.601562 195.847656 177.234375 196.558594 C 176.867188 197.300781 176.59375 198.226562 176.410156 199.402344 C 176.257812 200.421875 176.195312 201.472656 176.164062 202.492188 C 176.074219 202.554688 175.980469 202.613281 175.921875 202.675781 C 175.554688 202.921875 175.246094 203.203125 175.003906 203.511719 C 174.851562 203.695312 174.699219 203.910156 174.574219 204.128906 C 174.421875 204.375 174.300781 204.746094 174.175781 204.992188 C 173.839844 205.949219 173.871094 207.339844 174.726562 208.175781 C 175.21875 208.636719 175.796875 208.976562 176.5 209.195312 C 176.441406 209.347656 176.410156 209.503906 176.378906 209.65625 C 176.257812 210.183594 176.195312 210.769531 176.132812 211.386719 C 176.132812 211.636719 176.164062 211.882812 176.195312 212.128906 C 176.226562 212.222656 176.226562 212.316406 176.226562 212.375 C 176.257812 212.65625 176.410156 213.054688 176.5625 213.273438 C 176.867188 213.796875 177.265625 214.230469 177.910156 214.632812 C 178.457031 214.972656 179.101562 215.0625 179.804688 215.15625 C 179.867188 215.15625 179.925781 215.15625 179.988281 215.15625 C 180.292969 215.15625 180.660156 215.09375 180.8125 215.0625 C 181.148438 215.003906 181.425781 214.878906 181.792969 214.722656 C 182.28125 214.507812 182.742188 214.230469 183.199219 213.859375 C 183.8125 214.199219 184.484375 214.445312 185.035156 214.695312 C 186.347656 215.21875 187.878906 215.496094 189.894531 215.589844 C 190.171875 215.589844 190.445312 215.621094 190.722656 215.621094 C 192.3125 215.621094 193.839844 215.402344 195.25 215.003906 C 197.726562 214.261719 199.835938 212.964844 202.34375 211.296875 C 202.894531 210.925781 203.414062 210.554688 203.839844 210.183594 C 203.902344 210.121094 203.964844 210.089844 204.023438 210.027344 C 204.300781 210.058594 204.574219 210.089844 204.820312 210.121094 C 205.125 210.152344 205.371094 210.183594 205.644531 210.183594 C 206.378906 210.183594 207.023438 210.027344 207.542969 209.6875 C 208 209.410156 208.398438 208.949219 208.671875 208.421875 C 208.886719 208.019531 208.980469 207.648438 209.039062 207.125 C 209.070312 206.816406 209.011719 206.539062 208.980469 206.261719 L 208.949219 206.105469 C 208.855469 205.859375 208.765625 205.609375 208.671875 205.363281 C 208.550781 205.148438 208.460938 204.960938 208.304688 204.777344 C 208.152344 204.5625 208 204.375 207.816406 204.191406 C 207.726562 204.097656 207.601562 204.003906 207.480469 203.882812 C 208.214844 203.386719 208.765625 202.675781 209.011719 201.933594 C 209.132812 201.5625 209.164062 201.164062 209.191406 200.730469 C 209.164062 200.484375 209.132812 200.203125 209.101562 199.957031 L 209.070312 199.835938 L 209.039062 199.710938 C 208.949219 199.464844 208.855469 199.214844 208.703125 199 C 208.429688 198.535156 208.0625 198.257812 207.632812 197.949219 L 207.601562 197.917969 C 207.390625 197.796875 207.144531 197.703125 206.898438 197.609375 C 206.625 197.515625 206.226562 197.425781 205.890625 197.425781 C 205.492188 197.425781 205.125 197.488281 204.667969 197.546875 C 204.453125 196.496094 204.179688 195.476562 203.839844 194.488281 C 202.953125 191.957031 201.730469 189.886719 200.140625 188.375 C 199.132812 187.414062 198.03125 186.796875 196.929688 186.582031 C 196.59375 186.519531 196.320312 186.488281 196.074219 186.488281 C 195.921875 186.117188 195.738281 185.746094 195.523438 185.375 C 195.371094 185.128906 195.15625 184.789062 194.941406 184.574219 C 194.851562 184.480469 194.515625 184.109375 194.207031 183.957031 C 193.902344 183.800781 193.597656 183.675781 193.351562 183.585938 C 193.136719 183.492188 192.894531 183.492188 192.648438 183.460938 C 192.558594 183.460938 192.496094 183.460938 192.402344 183.429688 C 192.34375 183.460938 192.3125 183.460938 192.25 183.460938 Z M 192.25 183.460938 " fill-opacity="1" fill-rule="nonzero"/></g><g clip-path="url(#50f7ba5194)"><path fill="#bf6934" d="M 200.445312 174.503906 C 199.773438 174.625 199.164062 174.964844 198.644531 175.367188 C 198.304688 175.644531 197.96875 175.894531 197.664062 176.230469 C 197.390625 176.542969 197.144531 176.910156 196.898438 177.25 C 196.503906 177.808594 196.195312 178.457031 195.921875 179.074219 C 195.585938 179.847656 195.277344 180.617188 195.035156 181.390625 C 194.574219 182.875 194.300781 184.449219 194.117188 185.996094 C 194.023438 186.703125 194.023438 187.445312 194.117188 188.15625 C 194.179688 188.652344 194.269531 189.054688 194.421875 189.515625 C 194.542969 189.886719 194.699219 190.226562 194.851562 190.566406 C 195.066406 191.03125 195.613281 191.402344 196.074219 191.523438 C 196.53125 191.648438 197.023438 191.617188 197.449219 191.429688 C 197.632812 191.492188 197.816406 191.492188 198 191.492188 C 198.582031 191.554688 199.164062 191.617188 199.742188 191.554688 C 200.996094 191.460938 202.25 191.152344 203.445312 190.78125 C 204.667969 190.382812 205.859375 189.886719 206.960938 189.238281 C 207.480469 188.929688 207.941406 188.558594 208.398438 188.1875 C 208.917969 187.753906 209.316406 187.199219 209.621094 186.613281 C 209.957031 186.023438 210.171875 185.316406 210.203125 184.636719 C 210.234375 184.265625 210.203125 183.957031 210.140625 183.585938 C 210.082031 183.152344 209.925781 182.8125 209.714844 182.410156 C 209.558594 182.132812 209.316406 181.855469 209.101562 181.636719 C 208.980469 181.515625 208.855469 181.421875 208.734375 181.328125 C 208.980469 180.464844 209.039062 179.539062 208.734375 178.703125 C 208.488281 178.023438 208.0625 177.375 207.390625 177.066406 C 207.234375 177.003906 207.050781 176.910156 206.898438 176.851562 C 206.65625 176.820312 206.378906 176.789062 206.136719 176.757812 C 205.738281 176.726562 205.308594 176.820312 204.941406 176.941406 C 204.820312 176.972656 204.699219 177.035156 204.574219 177.097656 C 204.300781 176.230469 203.75 175.429688 203.015625 174.902344 C 202.496094 174.535156 201.882812 174.378906 201.273438 174.378906 C 200.996094 174.441406 200.722656 174.472656 200.445312 174.503906 Z M 201.546875 178.550781 C 201.515625 178.550781 201.457031 178.550781 201.425781 178.582031 C 201.457031 178.550781 201.515625 178.550781 201.546875 178.550781 Z M 201.242188 178.609375 C 201.242188 178.609375 201.273438 178.609375 201.273438 178.640625 C 201.273438 178.640625 201.273438 178.640625 201.242188 178.609375 Z M 200.753906 179.042969 C 200.753906 179.320312 200.753906 179.601562 200.722656 179.878906 C 200.722656 179.96875 200.691406 180.03125 200.691406 180.09375 C 200.171875 180.679688 199.714844 181.296875 199.285156 181.917969 C 199.285156 181.949219 199.253906 181.949219 199.253906 181.976562 C 199.347656 181.699219 199.4375 181.421875 199.558594 181.144531 C 199.835938 180.496094 200.171875 179.878906 200.570312 179.289062 C 200.601562 179.199219 200.691406 179.105469 200.753906 179.042969 Z M 204.851562 179.910156 C 204.851562 179.910156 204.851562 179.941406 204.851562 179.910156 C 204.851562 179.941406 204.851562 179.910156 204.851562 179.910156 Z M 206.929688 185.003906 C 206.960938 185.003906 206.992188 185.035156 206.992188 185.035156 C 206.960938 185.035156 206.929688 185.035156 206.929688 185.003906 Z M 198.214844 187.261719 C 198.277344 187.324219 198.367188 187.382812 198.429688 187.414062 C 198.367188 187.414062 198.277344 187.414062 198.214844 187.382812 C 198.214844 187.355469 198.214844 187.324219 198.214844 187.261719 Z M 198.214844 187.261719 " fill-opacity="1" fill-rule="nonzero"/></g><path fill="#bf6934" d="M 198.980469 178.519531 C 198.796875 179.105469 198.613281 179.691406 198.460938 180.308594 C 198.335938 180.710938 198.214844 181.082031 198.121094 181.484375 C 198.03125 181.917969 197.910156 182.378906 197.847656 182.8125 C 197.753906 183.429688 197.664062 184.046875 197.632812 184.667969 C 197.601562 185.191406 197.878906 185.777344 198.246094 186.148438 C 198.644531 186.550781 199.164062 186.765625 199.714844 186.765625 C 200.261719 186.765625 200.785156 186.550781 201.179688 186.148438 C 201.578125 185.746094 201.730469 185.253906 201.792969 184.667969 C 201.824219 184.417969 201.824219 184.203125 201.855469 183.988281 C 201.824219 184.140625 201.824219 184.265625 201.792969 184.417969 C 201.824219 184.140625 201.855469 183.894531 201.914062 183.617188 C 202.007812 183.214844 202.097656 182.8125 202.160156 182.410156 C 202.25 182.007812 202.375 181.636719 202.496094 181.238281 C 202.648438 180.679688 202.800781 180.15625 202.984375 179.601562 C 203.320312 178.519531 202.585938 177.3125 201.546875 177.035156 C 201.363281 176.972656 201.179688 176.972656 200.996094 176.972656 C 200.050781 177.003906 199.253906 177.621094 198.980469 178.519531 Z M 198.980469 178.519531 " fill-opacity="1" fill-rule="nonzero"/><g clip-path="url(#2b102c9a10)"><path fill="#bf6934" d="M 172.863281 179.382812 C 172.617188 179.414062 172.375 179.476562 172.160156 179.601562 C 171.851562 179.722656 171.609375 179.941406 171.363281 180.09375 C 171.179688 180.28125 170.996094 180.464844 170.84375 180.679688 C 170.628906 180.929688 170.476562 181.207031 170.386719 181.515625 C 170.261719 181.824219 170.203125 182.164062 170.140625 182.503906 C 169.710938 182.535156 169.222656 182.628906 168.886719 182.8125 C 168.398438 183.089844 167.847656 183.460938 167.542969 183.988281 C 167.019531 184.820312 166.867188 185.808594 167.113281 186.734375 C 167.113281 186.765625 167.113281 186.796875 167.144531 186.796875 C 166.960938 186.828125 166.777344 186.890625 166.625 186.984375 C 166.289062 187.105469 166.011719 187.292969 165.738281 187.507812 C 165.492188 187.722656 165.1875 188.003906 165.035156 188.28125 C 164.878906 188.558594 164.726562 188.835938 164.636719 189.144531 C 164.484375 189.609375 164.515625 190.132812 164.574219 190.597656 C 164.667969 191.402344 165.125 192.050781 165.585938 192.667969 C 165.738281 192.882812 165.921875 193.070312 166.105469 193.253906 C 166.347656 193.5 166.59375 193.75 166.835938 193.996094 C 167.753906 194.859375 168.765625 195.570312 169.867188 196.15625 C 170.964844 196.746094 172.128906 197.175781 173.351562 197.457031 C 174.699219 197.734375 176.011719 197.828125 177.359375 197.515625 C 177.664062 197.457031 178.03125 197.300781 178.304688 197.207031 C 178.613281 197.085938 178.886719 196.960938 179.132812 196.777344 C 179.253906 196.683594 179.40625 196.589844 179.527344 196.496094 C 179.621094 196.496094 179.683594 196.46875 179.773438 196.46875 C 180.292969 196.34375 180.84375 196.003906 181.089844 195.539062 C 181.394531 194.953125 181.699219 194.367188 181.914062 193.71875 C 182.066406 193.253906 182.097656 192.761719 182.097656 192.265625 C 182.128906 191.679688 182.035156 191.121094 181.976562 190.535156 C 181.851562 189.609375 181.515625 188.683594 181.179688 187.816406 C 180.964844 187.324219 180.691406 186.859375 180.386719 186.425781 C 180.203125 186.179688 180.019531 185.902344 179.773438 185.683594 C 179.5 184.757812 179.101562 183.863281 178.613281 183.027344 C 178.121094 182.257812 177.542969 181.609375 176.867188 180.988281 C 176.5 180.648438 176.105469 180.308594 175.707031 180.03125 C 175.308594 179.753906 174.851562 179.570312 174.390625 179.445312 C 174.054688 179.351562 173.75 179.289062 173.414062 179.289062 C 173.199219 179.351562 173.046875 179.351562 172.863281 179.382812 Z M 174.359375 182.90625 C 174.332031 182.9375 174.300781 182.96875 174.269531 183.027344 C 174.300781 182.96875 174.332031 182.9375 174.359375 182.90625 Z M 174.300781 183.058594 C 174.300781 183.058594 174.269531 183.089844 174.269531 183.089844 C 174.269531 183.089844 174.300781 183.058594 174.300781 183.058594 Z M 170.691406 186.613281 Z M 170.355469 186.675781 C 170.324219 186.675781 170.292969 186.703125 170.261719 186.703125 C 170.292969 186.703125 170.324219 186.675781 170.355469 186.675781 Z M 175.035156 188.527344 C 175.1875 188.464844 175.308594 188.34375 175.429688 188.25 C 175.554688 188.683594 175.796875 189.144531 176.074219 189.484375 C 176.441406 189.917969 177.050781 190.382812 177.664062 190.410156 C 177.785156 190.84375 177.878906 191.308594 177.9375 191.742188 C 177.9375 191.957031 177.9375 192.203125 177.9375 192.421875 C 177.664062 192.667969 177.359375 192.914062 177.082031 193.160156 C 176.929688 193.253906 176.777344 193.316406 176.625 193.378906 C 176.378906 193.441406 176.132812 193.5 175.890625 193.53125 C 175.429688 193.53125 174.972656 193.53125 174.542969 193.46875 C 173.71875 193.285156 172.921875 193.039062 172.128906 192.699219 C 171.363281 192.296875 170.628906 191.832031 169.957031 191.308594 C 169.957031 191.308594 169.957031 191.308594 169.925781 191.277344 C 169.988281 191.308594 170.050781 191.339844 170.109375 191.339844 C 170.507812 191.554688 170.9375 191.742188 171.332031 191.957031 C 171.667969 192.050781 172.035156 192.082031 172.375 192.019531 C 172.738281 191.925781 173.046875 191.769531 173.320312 191.523438 C 174.023438 190.875 174.175781 189.886719 173.78125 189.054688 C 173.71875 188.960938 173.6875 188.835938 173.628906 188.742188 C 173.78125 188.773438 173.933594 188.804688 174.085938 188.804688 C 174.421875 188.773438 174.757812 188.683594 175.035156 188.527344 Z M 168.550781 189.761719 C 168.550781 189.792969 168.550781 189.792969 168.550781 189.824219 C 168.582031 189.792969 168.550781 189.792969 168.550781 189.761719 Z M 168.640625 189.917969 C 168.613281 189.949219 168.613281 189.949219 168.640625 189.917969 Z M 168.246094 190.84375 C 168.246094 190.84375 168.214844 190.84375 168.246094 190.84375 C 168.214844 190.84375 168.214844 190.84375 168.246094 190.84375 C 168.214844 190.84375 168.246094 190.84375 168.246094 190.84375 Z M 168.214844 190.875 C 168.183594 190.90625 168.152344 190.9375 168.152344 190.96875 C 168.152344 190.9375 168.183594 190.90625 168.214844 190.875 Z M 168.089844 190.875 C 168.0625 190.90625 168.03125 190.90625 168.03125 190.9375 C 168.0625 190.90625 168.089844 190.90625 168.089844 190.875 Z M 168.089844 190.875 " fill-opacity="1" fill-rule="nonzero"/></g><path fill="#bf6934" d="M 173.015625 179.476562 C 172.648438 179.570312 172.34375 179.722656 172.066406 179.96875 C 171.824219 180.15625 171.640625 180.402344 171.457031 180.648438 C 171.332031 180.867188 171.242188 181.082031 171.148438 181.296875 C 171.027344 181.730469 171.027344 182.132812 171.058594 182.597656 C 171.121094 183.121094 171.332031 183.617188 171.546875 184.109375 C 171.761719 184.605469 172.28125 185.003906 172.769531 185.160156 C 173.289062 185.316406 173.839844 185.285156 174.332031 185.035156 C 174.574219 184.914062 174.820312 184.726562 175.003906 184.480469 C 175.613281 185.066406 176.164062 185.683594 176.65625 186.363281 C 176.992188 186.921875 177.265625 187.507812 177.511719 188.09375 C 177.753906 188.835938 177.910156 189.578125 178.03125 190.320312 C 178.03125 190.8125 178.03125 191.277344 178 191.769531 C 177.9375 192.914062 178.855469 193.902344 179.957031 193.964844 C 181.089844 194.027344 182.035156 193.101562 182.128906 191.988281 C 182.160156 191.648438 182.160156 191.339844 182.191406 191 C 182.21875 190.195312 182.097656 189.390625 181.976562 188.621094 C 181.792969 187.601562 181.457031 186.613281 181.027344 185.683594 C 180.628906 184.789062 180.078125 183.988281 179.5 183.214844 C 178.917969 182.472656 178.246094 181.792969 177.542969 181.175781 C 176.746094 180.464844 175.921875 179.816406 174.851562 179.507812 C 174.542969 179.414062 174.207031 179.382812 173.871094 179.382812 C 173.535156 179.382812 173.261719 179.414062 173.015625 179.476562 Z M 175.09375 181.761719 C 175.09375 181.824219 175.09375 181.917969 175.125 181.976562 C 175.09375 181.886719 175.09375 181.824219 175.09375 181.761719 Z M 175.09375 181.761719 " fill-opacity="1" fill-rule="nonzero"/><path fill="#bf6934" d="M 174.117188 185.316406 C 173.628906 185.375 173.199219 185.5625 172.863281 185.902344 C 172.617188 186.148438 172.433594 186.425781 172.3125 186.734375 C 172.128906 186.703125 171.945312 186.703125 171.761719 186.703125 C 171.578125 186.703125 171.425781 186.734375 171.273438 186.765625 C 171.148438 186.734375 170.996094 186.703125 170.875 186.703125 C 170.324219 186.675781 169.804688 186.859375 169.375 187.230469 C 169.007812 187.570312 168.671875 188.15625 168.703125 188.683594 C 168.765625 189.390625 168.796875 190.070312 168.980469 190.78125 C 169.191406 191.585938 169.621094 192.234375 170.109375 192.882812 C 170.261719 193.101562 170.445312 193.253906 170.660156 193.441406 C 170.996094 193.75 171.363281 194.027344 171.730469 194.273438 C 172.3125 194.644531 173.015625 194.921875 173.65625 195.109375 C 175.035156 195.507812 176.5625 195.539062 177.96875 195.199219 C 178.613281 195.046875 179.253906 194.738281 179.835938 194.429688 C 180.292969 194.179688 180.597656 193.808594 180.90625 193.378906 C 181.179688 192.976562 181.273438 192.449219 181.332031 191.988281 C 181.394531 191.648438 181.210938 191.03125 181.058594 190.75 C 180.875 190.382812 180.628906 190.042969 180.324219 189.730469 C 179.773438 189.175781 179.101562 188.867188 178.367188 188.589844 C 178.152344 188.496094 177.9375 188.433594 177.726562 188.34375 C 177.695312 188.3125 177.695312 188.28125 177.664062 188.28125 C 177.753906 188.0625 177.816406 187.816406 177.816406 187.570312 C 177.878906 186.457031 176.992188 185.40625 175.859375 185.375 C 175.585938 185.375 175.277344 185.375 175.003906 185.375 C 174.851562 185.375 174.726562 185.375 174.605469 185.375 C 174.484375 185.285156 174.332031 185.285156 174.117188 185.316406 Z M 174.117188 185.316406 " fill-opacity="1" fill-rule="nonzero"/><path fill="#000000" d="M 184.148438 197.363281 C 183.871094 197.578125 183.71875 197.886719 183.628906 198.257812 C 183.445312 198.90625 183.472656 199.585938 183.597656 200.203125 C 183.65625 200.484375 183.75 200.761719 183.871094 201.007812 C 183.964844 201.222656 184.085938 201.410156 184.238281 201.5625 C 184.605469 201.964844 185.21875 202.027344 185.644531 201.65625 C 185.707031 201.59375 185.738281 201.5625 185.796875 201.503906 C 185.859375 201.472656 185.890625 201.441406 185.953125 201.378906 C 186.257812 201.132812 186.347656 200.730469 186.410156 200.359375 C 186.5 199.773438 186.5 199.183594 186.347656 198.597656 C 186.289062 198.351562 186.164062 198.105469 186.042969 197.855469 C 185.859375 197.546875 185.613281 197.269531 185.246094 197.148438 C 185.15625 197.117188 185.035156 197.085938 184.941406 197.085938 C 184.636719 197.085938 184.390625 197.207031 184.148438 197.363281 Z M 184.148438 197.363281 " fill-opacity="1" fill-rule="nonzero"/><path fill="#000000" d="M 194.820312 195.632812 C 194.636719 195.726562 194.484375 195.847656 194.359375 196.003906 C 194.269531 196.128906 194.207031 196.28125 194.148438 196.4375 C 194.023438 196.714844 193.996094 197.085938 193.996094 197.394531 C 193.996094 197.796875 194.085938 198.195312 194.207031 198.566406 C 194.300781 198.785156 194.390625 199 194.515625 199.214844 C 194.636719 199.371094 194.726562 199.554688 194.910156 199.648438 C 195.09375 199.742188 195.25 199.835938 195.429688 199.835938 C 195.492188 199.835938 195.523438 199.863281 195.585938 199.863281 C 195.828125 199.863281 196.195312 199.773438 196.378906 199.585938 C 196.410156 199.554688 196.410156 199.554688 196.441406 199.523438 C 196.5625 199.402344 196.65625 199.277344 196.714844 199.09375 C 196.777344 198.96875 196.808594 198.875 196.808594 198.753906 C 196.839844 198.566406 196.867188 198.382812 196.898438 198.195312 C 196.929688 197.980469 196.898438 197.734375 196.867188 197.515625 C 196.839844 197.207031 196.714844 196.929688 196.625 196.652344 C 196.59375 196.527344 196.503906 196.4375 196.441406 196.3125 C 196.320312 196.128906 196.164062 195.878906 195.953125 195.757812 C 195.769531 195.632812 195.613281 195.570312 195.402344 195.570312 C 195.371094 195.570312 195.371094 195.570312 195.339844 195.570312 C 195.1875 195.507812 194.972656 195.539062 194.820312 195.632812 Z M 194.820312 195.632812 " fill-opacity="1" fill-rule="nonzero"/><path fill="#000000" d="M 190.019531 198.597656 C 189.683594 198.722656 189.375 198.90625 189.101562 199.15625 C 188.734375 199.496094 188.671875 200.050781 188.949219 200.453125 C 188.949219 200.484375 188.949219 200.484375 188.980469 200.515625 C 189.101562 200.824219 189.4375 200.976562 189.710938 201.101562 C 189.894531 201.195312 190.171875 201.195312 190.386719 201.195312 C 190.691406 201.164062 190.9375 201.101562 191.210938 201.007812 C 191.363281 200.945312 191.546875 200.855469 191.699219 200.761719 C 192.035156 200.542969 192.34375 200.328125 192.464844 199.925781 C 192.496094 199.835938 192.527344 199.710938 192.527344 199.617188 C 192.527344 199.402344 192.464844 199.246094 192.402344 199.0625 C 192.34375 198.875 192.160156 198.753906 192.007812 198.628906 C 191.914062 198.535156 191.699219 198.476562 191.578125 198.445312 C 191.425781 198.414062 191.273438 198.382812 191.121094 198.382812 C 190.691406 198.351562 190.324219 198.476562 190.019531 198.597656 Z M 190.019531 198.597656 " fill-opacity="1" fill-rule="nonzero"/><path fill="#000000" d="M 190.507812 200.328125 C 190.234375 200.390625 190.050781 200.605469 190.019531 200.882812 C 190.019531 201.007812 190.019531 201.132812 190.019531 201.253906 C 189.988281 201.59375 189.925781 201.902344 189.894531 202.242188 C 189.835938 202.554688 189.742188 202.832031 189.621094 203.109375 C 189.53125 203.261719 189.4375 203.417969 189.347656 203.542969 C 189.253906 203.632812 189.164062 203.726562 189.070312 203.789062 C 188.980469 203.851562 188.886719 203.910156 188.765625 203.941406 C 188.671875 203.972656 188.582031 204.003906 188.488281 204.003906 C 188.367188 204.003906 188.277344 204.003906 188.152344 203.972656 C 188.03125 203.941406 187.910156 203.910156 187.785156 203.851562 C 187.695312 203.789062 187.601562 203.757812 187.542969 203.695312 C 187.480469 203.632812 187.449219 203.601562 187.417969 203.542969 C 187.328125 203.417969 187.234375 203.261719 187.175781 203.140625 C 186.992188 202.863281 186.65625 202.707031 186.347656 202.863281 C 186.074219 203.015625 185.921875 203.417969 186.074219 203.695312 C 186.289062 204.066406 186.5 204.4375 186.808594 204.683594 C 186.960938 204.808594 187.144531 204.929688 187.328125 204.992188 C 187.570312 205.117188 187.816406 205.179688 188.09375 205.210938 C 188.519531 205.300781 188.980469 205.179688 189.375 205.023438 C 189.589844 204.929688 189.742188 204.808594 189.925781 204.683594 C 190.140625 204.53125 190.292969 204.34375 190.445312 204.128906 C 190.570312 203.941406 190.691406 203.757812 190.785156 203.542969 C 190.84375 203.386719 190.90625 203.261719 190.964844 203.109375 C 191.179688 203.324219 191.425781 203.542969 191.671875 203.695312 C 192.007812 203.910156 192.375 204.066406 192.769531 204.160156 C 192.953125 204.222656 193.167969 204.25 193.382812 204.25 C 193.566406 204.28125 193.78125 204.25 193.964844 204.222656 C 194.332031 204.191406 194.667969 204.003906 194.972656 203.789062 C 195.25 203.570312 195.460938 203.324219 195.644531 203.015625 C 195.738281 202.863281 195.796875 202.707031 195.890625 202.554688 C 195.980469 202.335938 196.011719 202.121094 196.042969 201.902344 C 196.074219 201.75 195.980469 201.5625 195.890625 201.472656 C 195.769531 201.347656 195.613281 201.285156 195.460938 201.253906 C 195.308594 201.253906 195.125 201.316406 195.035156 201.410156 C 194.910156 201.535156 194.882812 201.65625 194.851562 201.8125 C 194.820312 201.964844 194.757812 202.089844 194.699219 202.242188 C 194.605469 202.398438 194.542969 202.523438 194.421875 202.644531 C 194.359375 202.707031 194.269531 202.769531 194.207031 202.832031 C 194.148438 202.890625 194.054688 202.921875 193.964844 202.953125 C 193.871094 202.984375 193.78125 202.984375 193.6875 203.015625 C 193.566406 203.015625 193.414062 203.015625 193.289062 202.984375 C 193.046875 202.921875 192.832031 202.863281 192.617188 202.769531 C 192.433594 202.675781 192.25 202.554688 192.097656 202.429688 C 191.945312 202.273438 191.824219 202.152344 191.699219 201.964844 C 191.578125 201.78125 191.488281 201.5625 191.394531 201.378906 C 191.363281 201.316406 191.363281 201.222656 191.332031 201.164062 C 191.332031 201.132812 191.332031 201.132812 191.332031 201.101562 C 191.332031 201.007812 191.332031 200.914062 191.332031 200.792969 C 191.304688 200.636719 191.242188 200.542969 191.148438 200.421875 C 191.058594 200.296875 190.875 200.203125 190.691406 200.203125 C 190.601562 200.296875 190.570312 200.328125 190.507812 200.328125 Z M 194.605469 202.367188 C 194.605469 202.367188 194.605469 202.398438 194.574219 202.398438 C 194.605469 202.398438 194.605469 202.367188 194.605469 202.367188 Z M 194.300781 202.800781 C 194.300781 202.800781 194.269531 202.832031 194.269531 202.832031 C 194.300781 202.800781 194.300781 202.800781 194.300781 202.800781 Z M 194.300781 202.800781 " fill-opacity="1" fill-rule="nonzero"/><path fill="#000000" d="M 194.882812 184.480469 C 194.699219 184.480469 194.574219 184.511719 194.453125 184.636719 C 194.332031 184.757812 194.269531 184.914062 194.238281 185.066406 C 194.238281 185.222656 194.300781 185.40625 194.390625 185.5 C 194.484375 185.625 194.667969 185.714844 194.820312 185.714844 C 195.125 185.714844 195.429688 185.683594 195.738281 185.714844 C 195.828125 185.746094 195.953125 185.777344 196.042969 185.808594 C 196.105469 185.839844 196.164062 185.902344 196.226562 185.933594 C 196.320312 186.023438 196.410156 186.117188 196.503906 186.242188 C 196.59375 186.394531 196.65625 186.550781 196.714844 186.703125 C 196.839844 187.042969 196.867188 187.414062 196.898438 187.785156 C 196.898438 187.910156 196.898438 188.003906 196.929688 188.125 C 196.929688 188.21875 196.960938 188.3125 196.992188 188.402344 C 197.050781 188.496094 197.113281 188.621094 197.234375 188.683594 C 197.328125 188.742188 197.480469 188.804688 197.601562 188.804688 C 197.726562 188.804688 197.816406 188.773438 197.9375 188.773438 C 198.0625 188.742188 198.152344 188.742188 198.277344 188.714844 C 198.460938 188.683594 198.671875 188.652344 198.886719 188.621094 C 199.191406 188.589844 199.5 188.589844 199.804688 188.652344 C 199.957031 188.683594 200.078125 188.742188 200.234375 188.804688 C 200.355469 188.867188 200.476562 188.960938 200.570312 189.023438 C 200.691406 189.113281 200.785156 189.238281 200.875 189.363281 C 200.96875 189.515625 201.058594 189.671875 201.121094 189.855469 C 201.210938 190.101562 201.273438 190.382812 201.304688 190.660156 C 201.304688 190.691406 201.304688 190.722656 201.304688 190.722656 C 201.304688 191.0625 201.546875 191.339844 201.882812 191.371094 C 202.191406 191.402344 202.527344 191.121094 202.527344 190.78125 C 202.527344 190.410156 202.464844 190.070312 202.375 189.730469 C 202.191406 189.082031 201.855469 188.496094 201.332031 188.0625 C 200.8125 187.632812 200.171875 187.414062 199.53125 187.414062 C 199.191406 187.414062 198.828125 187.445312 198.488281 187.476562 C 198.367188 187.476562 198.246094 187.507812 198.152344 187.539062 C 198.09375 186.890625 197.96875 186.242188 197.601562 185.714844 C 197.480469 185.5 197.328125 185.316406 197.144531 185.160156 C 197.050781 185.066406 196.960938 185.003906 196.867188 184.945312 C 196.746094 184.851562 196.59375 184.789062 196.472656 184.726562 C 196.164062 184.574219 195.828125 184.542969 195.492188 184.542969 C 195.25 184.449219 195.066406 184.480469 194.882812 184.480469 Z M 194.882812 184.480469 " fill-opacity="1" fill-rule="nonzero"/><path fill="#000000" d="M 180.507812 188.09375 C 180.355469 188.28125 180.203125 188.464844 180.078125 188.652344 C 179.957031 188.835938 179.867188 189.054688 179.773438 189.269531 C 179.621094 189.703125 179.589844 190.164062 179.527344 190.628906 C 179.5 190.875 179.5 191.089844 179.5 191.339844 C 179.5 191.585938 179.527344 191.832031 179.558594 192.050781 C 179.558594 192.082031 179.558594 192.109375 179.558594 192.140625 C 179.40625 192.203125 179.253906 192.296875 179.101562 192.390625 C 178.796875 192.574219 178.488281 192.820312 178.214844 193.101562 C 177.96875 193.347656 177.785156 193.59375 177.601562 193.871094 C 177.417969 194.179688 177.296875 194.550781 177.175781 194.890625 C 177.050781 195.324219 176.960938 195.757812 176.929688 196.21875 C 176.898438 196.46875 176.867188 196.746094 176.867188 196.992188 C 176.839844 197.332031 177.175781 197.609375 177.480469 197.609375 C 177.816406 197.609375 178.0625 197.332031 178.09375 196.992188 C 178.09375 196.746094 178.121094 196.527344 178.152344 196.28125 C 178.214844 195.789062 178.304688 195.324219 178.488281 194.859375 C 178.582031 194.644531 178.703125 194.429688 178.855469 194.210938 C 179.039062 193.996094 179.222656 193.808594 179.4375 193.625 C 179.652344 193.46875 179.867188 193.347656 180.078125 193.222656 C 180.234375 193.160156 180.386719 193.128906 180.507812 193.039062 C 180.539062 193.007812 180.597656 192.976562 180.628906 192.945312 C 180.691406 192.882812 180.722656 192.820312 180.753906 192.761719 C 180.84375 192.636719 180.875 192.390625 180.8125 192.234375 C 180.753906 192.082031 180.722656 191.925781 180.691406 191.742188 C 180.628906 191.214844 180.660156 190.660156 180.722656 190.132812 C 180.753906 189.917969 180.8125 189.730469 180.875 189.515625 C 180.9375 189.390625 180.996094 189.300781 181.089844 189.175781 C 181.148438 189.082031 181.210938 189.023438 181.304688 188.929688 C 181.515625 188.683594 181.546875 188.3125 181.304688 188.0625 C 181.179688 187.941406 181.027344 187.878906 180.875 187.878906 C 180.78125 187.910156 180.628906 187.972656 180.507812 188.09375 Z M 180.753906 191.617188 C 180.753906 191.648438 180.753906 191.679688 180.753906 191.710938 C 180.753906 191.679688 180.753906 191.648438 180.753906 191.617188 Z M 179.4375 193.65625 C 179.40625 193.65625 179.40625 193.6875 179.375 193.6875 C 179.40625 193.6875 179.4375 193.6875 179.4375 193.65625 Z M 178.519531 194.921875 C 178.519531 194.921875 178.519531 194.953125 178.488281 194.953125 C 178.488281 194.953125 178.488281 194.953125 178.519531 194.921875 Z M 178.519531 194.921875 " fill-opacity="1" fill-rule="nonzero"/><g clip-path="url(#51f58cec3d)"><path fill="#000000" d="M 172.375 180.25 C 172.21875 180.371094 172.066406 180.496094 171.914062 180.648438 C 171.761719 180.804688 171.667969 180.957031 171.578125 181.144531 C 171.457031 181.328125 171.394531 181.578125 171.363281 181.792969 C 171.332031 181.886719 171.332031 181.976562 171.332031 182.070312 C 171.148438 182.039062 170.9375 182.039062 170.753906 182.070312 C 170.234375 182.101562 169.742188 182.257812 169.316406 182.472656 C 168.949219 182.65625 168.613281 182.9375 168.304688 183.246094 C 168.152344 183.398438 168.03125 183.585938 167.910156 183.769531 C 167.753906 183.988281 167.695312 184.234375 167.601562 184.480469 C 167.480469 184.914062 167.480469 185.34375 167.511719 185.777344 C 167.542969 186.148438 167.632812 186.488281 167.753906 186.828125 C 167.542969 186.890625 167.328125 186.953125 167.144531 187.042969 C 166.835938 187.167969 166.53125 187.324219 166.226562 187.507812 C 165.921875 187.695312 165.675781 187.910156 165.429688 188.15625 C 165.1875 188.34375 165.003906 188.621094 164.789062 188.898438 C 164.574219 189.175781 164.605469 189.546875 164.851562 189.761719 C 165.09375 189.980469 165.492188 189.949219 165.707031 189.703125 C 165.949219 189.390625 166.164062 189.082031 166.441406 188.835938 C 166.683594 188.652344 166.929688 188.464844 167.203125 188.34375 C 167.511719 188.1875 167.847656 188.0625 168.214844 187.972656 C 168.214844 187.972656 168.246094 187.972656 168.246094 187.972656 C 168.429688 188.34375 168.671875 188.683594 168.917969 189.023438 C 169.316406 189.546875 169.804688 190.011719 170.414062 190.257812 C 170.722656 190.382812 171.058594 190.441406 171.363281 190.410156 C 171.730469 190.351562 172.066406 190.195312 172.25 189.855469 C 172.402344 189.546875 172.433594 189.207031 172.28125 188.867188 C 172.160156 188.558594 171.914062 188.34375 171.699219 188.09375 C 171.484375 187.878906 171.242188 187.664062 170.996094 187.507812 C 170.722656 187.324219 170.445312 187.167969 170.109375 187.015625 C 169.773438 186.859375 169.40625 186.765625 169.007812 186.703125 C 168.917969 186.457031 168.824219 186.179688 168.765625 185.902344 C 168.734375 185.65625 168.703125 185.40625 168.703125 185.160156 C 168.734375 185.003906 168.765625 184.820312 168.796875 184.667969 C 168.855469 184.542969 168.917969 184.417969 168.980469 184.296875 C 169.101562 184.140625 169.222656 184.015625 169.34375 183.894531 C 169.5 183.769531 169.683594 183.648438 169.867188 183.523438 C 170.050781 183.429688 170.234375 183.367188 170.445312 183.335938 C 170.691406 183.308594 170.90625 183.277344 171.148438 183.277344 C 171.304688 183.308594 171.457031 183.308594 171.609375 183.335938 C 171.667969 183.492188 171.761719 183.648438 171.851562 183.800781 C 172.066406 184.203125 172.34375 184.574219 172.648438 184.914062 C 172.800781 185.097656 172.953125 185.253906 173.136719 185.40625 C 173.320312 185.53125 173.503906 185.65625 173.6875 185.746094 C 173.871094 185.839844 174.085938 185.902344 174.269531 185.902344 C 174.515625 185.933594 174.757812 185.902344 175.003906 185.808594 C 175.125 185.746094 175.246094 185.683594 175.339844 185.5625 C 175.402344 185.46875 175.460938 185.375 175.523438 185.285156 C 175.585938 185.191406 175.613281 185.003906 175.613281 184.882812 C 175.613281 184.757812 175.585938 184.636719 175.554688 184.511719 C 175.492188 184.296875 175.371094 184.140625 175.21875 183.988281 C 175.035156 183.800781 174.878906 183.617188 174.667969 183.429688 C 174.300781 183.121094 173.902344 182.875 173.503906 182.65625 C 173.199219 182.503906 172.894531 182.378906 172.554688 182.257812 C 172.554688 182.164062 172.527344 182.070312 172.527344 181.976562 C 172.527344 181.917969 172.554688 181.824219 172.554688 181.761719 C 172.585938 181.699219 172.617188 181.636719 172.648438 181.578125 C 172.710938 181.484375 172.800781 181.390625 172.863281 181.328125 C 172.921875 181.296875 172.953125 181.269531 173.015625 181.207031 C 173.289062 181.019531 173.351562 180.617188 173.167969 180.339844 C 173.046875 180.15625 172.863281 180.0625 172.648438 180.0625 C 172.585938 180.15625 172.464844 180.1875 172.375 180.25 Z M 173.6875 184.234375 C 173.808594 184.328125 173.902344 184.417969 174.023438 184.511719 C 173.902344 184.417969 173.808594 184.328125 173.6875 184.234375 Z M 174.667969 184.636719 C 174.667969 184.636719 174.636719 184.667969 174.636719 184.667969 C 174.636719 184.667969 174.636719 184.636719 174.667969 184.636719 Z M 169.894531 188.25 C 170.019531 188.3125 170.140625 188.375 170.261719 188.464844 C 170.507812 188.652344 170.753906 188.835938 170.964844 189.054688 C 170.996094 189.082031 170.996094 189.082031 171.027344 189.113281 C 170.996094 189.113281 170.964844 189.113281 170.964844 189.082031 C 170.84375 189.023438 170.722656 188.992188 170.628906 188.898438 C 170.414062 188.742188 170.234375 188.558594 170.050781 188.375 C 169.988281 188.375 169.925781 188.3125 169.894531 188.25 Z M 170.875 188.960938 C 170.90625 188.992188 170.90625 188.992188 170.9375 189.023438 C 170.90625 188.992188 170.90625 188.992188 170.875 188.960938 Z M 171.210938 189.144531 Z M 171.210938 189.144531 " fill-opacity="1" fill-rule="nonzero"/></g><g clip-path="url(#6c86c70f66)"><path fill="#000000" d="M 203.015625 175.121094 C 202.742188 175.304688 202.648438 175.707031 202.863281 175.984375 C 203.015625 176.171875 203.136719 176.355469 203.261719 176.570312 C 203.351562 176.757812 203.414062 176.972656 203.472656 177.191406 C 203.503906 177.3125 203.503906 177.46875 203.503906 177.589844 C 203.046875 177.871094 202.585938 178.210938 202.191406 178.582031 C 202.066406 178.703125 201.945312 178.796875 201.855469 178.921875 C 201.730469 179.074219 201.640625 179.230469 201.546875 179.382812 C 201.363281 179.691406 201.304688 180.03125 201.332031 180.371094 C 201.363281 180.527344 201.394531 180.679688 201.488281 180.835938 C 201.578125 180.988281 201.730469 181.113281 201.882812 181.207031 C 202.222656 181.390625 202.648438 181.421875 203.015625 181.207031 C 203.628906 180.835938 204.054688 180.21875 204.332031 179.570312 C 204.484375 179.167969 204.605469 178.765625 204.667969 178.363281 C 204.972656 178.242188 205.308594 178.117188 205.617188 178.054688 C 205.828125 178.023438 206.042969 177.992188 206.257812 177.992188 C 206.441406 178.023438 206.625 178.054688 206.839844 178.085938 C 207.023438 178.148438 207.175781 178.242188 207.328125 178.332031 C 207.480469 178.425781 207.601562 178.550781 207.726562 178.671875 C 207.878906 178.859375 208.03125 179.074219 208.152344 179.320312 C 208.246094 179.539062 208.335938 179.722656 208.367188 179.941406 C 208.398438 180.15625 208.429688 180.371094 208.429688 180.589844 C 208.398438 180.804688 208.367188 181.050781 208.304688 181.269531 C 208.277344 181.328125 208.277344 181.359375 208.246094 181.421875 C 208.0625 181.359375 207.878906 181.328125 207.695312 181.296875 C 206.746094 181.175781 205.859375 181.699219 205.15625 182.289062 C 204.820312 182.566406 204.484375 182.90625 204.300781 183.335938 C 204.207031 183.523438 204.207031 183.769531 204.207031 183.988281 C 204.207031 184.078125 204.238281 184.203125 204.300781 184.296875 C 204.363281 184.449219 204.453125 184.574219 204.574219 184.695312 C 204.636719 184.757812 204.757812 184.820312 204.851562 184.851562 C 204.941406 184.882812 205.066406 184.914062 205.15625 184.945312 C 205.25 184.976562 205.402344 184.976562 205.492188 184.976562 C 205.617188 184.976562 205.707031 184.976562 205.796875 184.976562 C 206.289062 184.945312 206.777344 184.695312 207.175781 184.417969 C 207.542969 184.171875 207.910156 183.863281 208.214844 183.554688 C 208.367188 183.429688 208.488281 183.277344 208.613281 183.121094 C 208.644531 183.152344 208.671875 183.214844 208.703125 183.246094 C 208.734375 183.308594 208.765625 183.398438 208.796875 183.460938 C 208.796875 183.554688 208.828125 183.648438 208.828125 183.738281 C 208.828125 183.863281 208.796875 183.988281 208.765625 184.109375 C 208.703125 184.234375 208.671875 184.386719 208.582031 184.511719 C 208.582031 184.511719 208.582031 184.542969 208.550781 184.542969 C 208.335938 184.820312 208.367188 185.191406 208.613281 185.40625 C 208.855469 185.625 209.285156 185.59375 209.46875 185.34375 C 209.714844 185.003906 209.867188 184.605469 209.957031 184.203125 C 210.050781 183.738281 210.019531 183.214844 209.804688 182.78125 C 209.714844 182.566406 209.589844 182.347656 209.40625 182.195312 C 209.347656 182.132812 209.316406 182.101562 209.253906 182.039062 C 209.558594 181.296875 209.652344 180.464844 209.46875 179.691406 C 209.375 179.261719 209.191406 178.828125 208.949219 178.457031 C 208.855469 178.269531 208.703125 178.117188 208.582031 177.960938 C 208.398438 177.777344 208.246094 177.589844 208.03125 177.4375 C 207.757812 177.25 207.480469 177.097656 207.175781 177.003906 C 206.992188 176.941406 206.808594 176.882812 206.625 176.851562 C 206.441406 176.820312 206.257812 176.820312 206.042969 176.820312 C 205.644531 176.820312 205.25 176.882812 204.882812 177.003906 C 204.757812 177.035156 204.667969 177.066406 204.546875 177.097656 C 204.484375 176.851562 204.421875 176.570312 204.332031 176.324219 C 204.179688 175.953125 203.964844 175.644531 203.75 175.335938 C 203.628906 175.152344 203.445312 175.058594 203.230469 175.058594 C 203.230469 175.027344 203.109375 175.058594 203.015625 175.121094 Z M 203.015625 179.476562 C 202.984375 179.507812 202.984375 179.539062 202.953125 179.570312 C 202.863281 179.722656 202.742188 179.847656 202.617188 179.96875 C 202.648438 179.941406 202.648438 179.878906 202.679688 179.847656 C 202.800781 179.722656 202.894531 179.601562 203.015625 179.476562 Z M 202.433594 180.09375 C 202.433594 180.125 202.464844 180.125 202.433594 180.09375 C 202.464844 180.125 202.464844 180.125 202.433594 180.09375 C 202.433594 180.125 202.433594 180.125 202.433594 180.09375 Z M 202.558594 180.15625 C 202.558594 180.15625 202.585938 180.15625 202.585938 180.15625 C 202.585938 180.15625 202.558594 180.15625 202.558594 180.15625 Z M 207.542969 182.503906 C 207.449219 182.597656 207.359375 182.71875 207.265625 182.8125 C 206.960938 183.089844 206.625 183.335938 206.257812 183.554688 C 206.136719 183.617188 205.980469 183.675781 205.859375 183.707031 C 205.769531 183.707031 205.675781 183.738281 205.554688 183.738281 C 205.523438 183.738281 205.523438 183.738281 205.492188 183.738281 C 205.585938 183.585938 205.707031 183.460938 205.859375 183.335938 C 206.136719 183.121094 206.410156 182.90625 206.714844 182.75 C 206.867188 182.6875 207.023438 182.628906 207.207031 182.597656 C 207.328125 182.535156 207.417969 182.503906 207.542969 182.503906 Z M 205.492188 183.675781 C 205.492188 183.707031 205.492188 183.707031 205.492188 183.675781 C 205.492188 183.707031 205.492188 183.707031 205.492188 183.675781 C 205.492188 183.707031 205.492188 183.707031 205.492188 183.675781 Z M 205.460938 183.832031 C 205.460938 183.832031 205.460938 183.863281 205.460938 183.832031 C 205.460938 183.863281 205.460938 183.832031 205.460938 183.832031 Z M 205.460938 183.832031 " fill-opacity="1" fill-rule="nonzero"/></g></svg>